<svg width="234" height="34" viewBox="0 0 234 34" fill="none" xmlns="http://www.w3.org/2000/svg">
<path d="M14.003 26.9448C11.3503 26.9448 8.95272 26.3694 6.81019 25.2185C4.69316 24.0677 3.0225 22.479 1.7982 20.4525C0.599398 18.401 0 16.1118 0 13.585C0 11.0581 0.599398 8.78146 1.7982 6.75497C3.0225 4.70346 4.70591 3.10228 6.84844 1.95143C8.99098 0.800588 11.3886 0.225165 14.0412 0.225165C16.0307 0.225165 17.8672 0.550404 19.5506 1.20088C21.234 1.85136 22.6624 2.80206 23.8357 4.05298L22.0375 5.81678C19.9459 3.74025 17.306 2.70199 14.1177 2.70199C12.0007 2.70199 10.075 3.17733 8.34056 4.12803C6.60614 5.07873 5.24155 6.37969 4.2468 8.0309C3.27756 9.68212 2.79294 11.5335 2.79294 13.585C2.79294 15.6365 3.27756 17.4879 4.2468 19.1391C5.24155 20.7903 6.60614 22.0912 8.34056 23.0419C10.075 23.9926 12.0007 24.468 14.1177 24.468C17.3315 24.468 19.9714 23.4172 22.0375 21.3157L23.8357 23.0795C22.6624 24.3304 21.2213 25.2936 19.5123 25.9691C17.8289 26.6196 15.9925 26.9448 14.003 26.9448Z" fill="#37D2A9"/>
<path d="M36.6263 26.9073C34.6878 26.9073 32.9406 26.482 31.3847 25.6313C29.8288 24.7557 28.6045 23.5548 27.7118 22.0287C26.8191 20.5026 26.3727 18.7763 26.3727 16.8499C26.3727 14.9235 26.8191 13.1972 27.7118 11.6711C28.6045 10.145 29.8288 8.95659 31.3847 8.10596C32.9406 7.25533 34.6878 6.83002 36.6263 6.83002C38.5648 6.83002 40.3119 7.25533 41.8678 8.10596C43.4237 8.95659 44.6353 10.145 45.5025 11.6711C46.3952 13.1972 46.8415 14.9235 46.8415 16.8499C46.8415 18.7763 46.3952 20.5026 45.5025 22.0287C44.6353 23.5548 43.4237 24.7557 41.8678 25.6313C40.3119 26.482 38.5648 26.9073 36.6263 26.9073ZM36.6263 24.543C38.0546 24.543 39.3299 24.2303 40.4522 23.6049C41.6 22.9544 42.4927 22.0412 43.1304 20.8653C43.768 19.6895 44.0869 18.351 44.0869 16.8499C44.0869 15.3488 43.768 14.0103 43.1304 12.8344C42.4927 11.6586 41.6 10.7579 40.4522 10.1325C39.3299 9.48197 38.0546 9.15673 36.6263 9.15673C35.1979 9.15673 33.9098 9.48197 32.7621 10.1325C31.6398 10.7579 30.7471 11.6586 30.0839 12.8344C29.4462 14.0103 29.1274 15.3488 29.1274 16.8499C29.1274 18.351 29.4462 19.6895 30.0839 20.8653C30.7471 22.0412 31.6398 22.9544 32.7621 23.6049C33.9098 24.2303 35.1979 24.543 36.6263 24.543Z" fill="#37D2A9"/>
<path d="M62.7557 6.83002C64.6432 6.83002 66.3521 7.25533 67.8825 8.10596C69.4128 8.93157 70.6116 10.1074 71.4789 11.6336C72.3461 13.1597 72.7797 14.8985 72.7797 16.8499C72.7797 18.8263 72.3461 20.5776 71.4789 22.1038C70.6116 23.6299 69.4128 24.8183 67.8825 25.6689C66.3776 26.4945 64.6687 26.9073 62.7557 26.9073C61.1233 26.9073 59.6439 26.582 58.3176 25.9316C57.0168 25.2561 55.9455 24.2804 55.1038 23.0044V34H52.3874V6.98013H54.989V10.883C55.8052 9.58205 56.8765 8.58131 58.2028 7.8808C59.5547 7.18028 61.0723 6.83002 62.7557 6.83002ZM62.5644 24.543C63.9672 24.543 65.2426 24.2303 66.3903 23.6049C67.5381 22.9544 68.4308 22.0412 69.0685 20.8653C69.7317 19.6895 70.0633 18.351 70.0633 16.8499C70.0633 15.3488 69.7317 14.0228 69.0685 12.872C68.4308 11.6961 67.5381 10.7829 66.3903 10.1325C65.2426 9.48197 63.9672 9.15673 62.5644 9.15673C61.136 9.15673 59.848 9.48197 58.7002 10.1325C57.5779 10.7829 56.6852 11.6961 56.022 12.872C55.3844 14.0228 55.0655 15.3488 55.0655 16.8499C55.0655 18.351 55.3844 19.6895 56.022 20.8653C56.6852 22.0412 57.5779 22.9544 58.7002 23.6049C59.848 24.2303 61.136 24.543 62.5644 24.543Z" fill="#37D2A9"/>
<path d="M85.2448 6.83002C87.8719 6.83002 89.8869 7.4805 91.2898 8.78146C92.6926 10.0574 93.3941 11.9588 93.3941 14.4857V26.7196H90.7924V23.6424C90.1803 24.6681 89.2748 25.4687 88.076 26.0442C86.9027 26.6196 85.4999 26.9073 83.8674 26.9073C81.6229 26.9073 79.8374 26.3819 78.5111 25.3311C77.1848 24.2804 76.5216 22.8918 76.5216 21.1656C76.5216 19.4893 77.1338 18.1383 78.3581 17.1126C79.6079 16.0868 81.5846 15.574 84.2883 15.574H90.6776V14.3731C90.6776 12.6718 90.193 11.3834 89.2238 10.5077C88.2545 9.60706 86.8389 9.15673 84.977 9.15673C83.7017 9.15673 82.4773 9.36939 81.3041 9.7947C80.1308 10.195 79.1233 10.7579 78.2816 11.4834L77.0573 9.49448C78.0775 8.64386 79.3018 7.99338 80.7302 7.54305C82.1585 7.0677 83.6634 6.83002 85.2448 6.83002ZM84.2883 24.8057C85.8187 24.8057 87.1323 24.468 88.229 23.7925C89.3258 23.092 90.142 22.0912 90.6776 20.7903V17.5629H84.3648C80.9215 17.5629 79.1998 18.7388 79.1998 21.0905C79.1998 22.2414 79.6461 23.1545 80.5389 23.83C81.4316 24.4805 82.6814 24.8057 84.2883 24.8057Z" fill="#37D2A9"/>
<path d="M118.257 13.1722H123.919V23.83C122.465 24.9058 120.782 25.7314 118.869 26.3068C116.956 26.8823 115.03 27.17 113.092 27.17C110.312 27.17 107.812 26.5946 105.593 25.4437C103.374 24.2678 101.627 22.6542 100.351 20.6026C99.1015 18.5261 98.4766 16.1869 98.4766 13.585C98.4766 10.9831 99.1015 8.65636 100.351 6.60486C101.627 4.52833 103.387 2.91464 105.631 1.7638C107.876 0.587932 110.401 0 113.206 0C115.553 0 117.683 0.387785 119.596 1.16335C121.509 1.93892 123.116 3.06475 124.417 4.54084L120.438 8.14349C118.525 6.16703 116.216 5.17881 113.513 5.17881C111.804 5.17881 110.286 5.52907 108.96 6.22958C107.633 6.9301 106.6 7.91832 105.861 9.19426C105.121 10.4702 104.751 11.9338 104.751 13.585C104.751 15.2112 105.121 16.6623 105.861 17.9382C106.6 19.2141 107.621 20.2149 108.921 20.9404C110.248 21.6409 111.753 21.9912 113.436 21.9912C115.221 21.9912 116.828 21.6159 118.257 20.8653V13.1722Z" fill="#37D2A9"/>
<path d="M137.558 6.22958C140.746 6.22958 143.195 6.98013 144.904 8.48124C146.613 9.95732 147.467 12.1965 147.467 15.1987V26.7196H141.881V24.2053C140.759 26.0817 138.668 27.0199 135.607 27.0199C134.025 27.0199 132.648 26.7572 131.475 26.2318C130.327 25.7064 129.447 24.9809 128.835 24.0552C128.223 23.1295 127.917 22.0787 127.917 20.9029C127.917 19.0265 128.631 17.5504 130.059 16.4746C131.513 15.3988 133.745 14.8609 136.755 14.8609H141.499C141.499 13.585 141.103 12.6093 140.313 11.9338C139.522 11.2333 138.336 10.883 136.755 10.883C135.658 10.883 134.574 11.0581 133.503 11.4084C132.457 11.7336 131.564 12.184 130.824 12.7594L128.682 8.66887C129.804 7.8933 131.143 7.29286 132.699 6.86755C134.28 6.44224 135.9 6.22958 137.558 6.22958ZM137.099 23.0795C138.119 23.0795 139.025 22.8543 139.815 22.404C140.606 21.9286 141.167 21.2406 141.499 20.34V18.2759H137.405C134.956 18.2759 133.732 19.064 133.732 20.6402C133.732 21.3907 134.025 21.9912 134.612 22.4415C135.224 22.8668 136.053 23.0795 137.099 23.0795Z" fill="#37D2A9"/>
<path d="M179.23 6.22958C181.806 6.22958 183.846 6.98013 185.351 8.48124C186.882 9.95732 187.647 12.184 187.647 15.1611V26.7196H181.678V16.0618C181.678 14.4606 181.334 13.2723 180.645 12.4967C179.982 11.6961 179.026 11.2958 177.776 11.2958C176.373 11.2958 175.264 11.7461 174.447 12.6468C173.631 13.5224 173.223 14.8359 173.223 16.5872V26.7196H167.255V16.0618C167.255 12.8845 165.954 11.2958 163.352 11.2958C161.975 11.2958 160.878 11.7461 160.062 12.6468C159.246 13.5224 158.837 14.8359 158.837 16.5872V26.7196H152.869V6.5298H158.57V8.85651C159.335 8.00589 160.266 7.35541 161.363 6.90508C162.485 6.45475 163.709 6.22958 165.036 6.22958C166.489 6.22958 167.803 6.51729 168.976 7.09272C170.15 7.64312 171.093 8.45622 171.807 9.53201C172.649 8.48124 173.708 7.66814 174.983 7.09272C176.284 6.51729 177.699 6.22958 179.23 6.22958Z" fill="#37D2A9"/>
<path d="M213.384 16.6998C213.384 16.7748 213.345 17.3002 213.269 18.2759H197.697C197.978 19.5269 198.641 20.5151 199.687 21.2406C200.732 21.9662 202.033 22.3289 203.589 22.3289C204.66 22.3289 205.604 22.1788 206.42 21.8786C207.262 21.5533 208.04 21.053 208.754 20.3775L211.93 23.755C209.991 25.9316 207.16 27.0199 203.436 27.0199C201.115 27.0199 199.062 26.582 197.276 25.7064C195.491 24.8057 194.114 23.5673 193.144 21.9912C192.175 20.415 191.69 18.6262 191.69 16.6247C191.69 14.6483 192.162 12.872 193.106 11.2958C194.075 9.69463 195.389 8.45622 197.047 7.58057C198.73 6.67991 200.605 6.22958 202.671 6.22958C204.686 6.22958 206.51 6.65489 208.142 7.50552C209.774 8.35614 211.05 9.58205 211.968 11.1832C212.912 12.7594 213.384 14.5982 213.384 16.6998ZM202.709 10.6578C201.357 10.6578 200.222 11.0331 199.304 11.7837C198.386 12.5342 197.825 13.56 197.621 14.8609H207.759C207.555 13.585 206.994 12.5717 206.076 11.8212C205.158 11.0456 204.035 10.6578 202.709 10.6578Z" fill="#37D2A9"/>
<path d="M224.282 27.0199C222.573 27.0199 220.902 26.8197 219.27 26.4194C217.638 25.9941 216.337 25.4687 215.368 24.8433L217.357 20.6402C218.275 21.2156 219.385 21.691 220.686 22.0662C221.987 22.4165 223.262 22.5916 224.512 22.5916C227.037 22.5916 228.299 21.9787 228.299 20.7528C228.299 20.1773 227.955 19.7645 227.266 19.5144C226.578 19.2642 225.519 19.0515 224.091 18.8764C222.407 18.6262 221.017 18.3385 219.921 18.0132C218.824 17.688 217.867 17.1126 217.051 16.287C216.26 15.4614 215.865 14.2855 215.865 12.7594C215.865 11.4834 216.235 10.3576 216.975 9.3819C217.74 8.38116 218.837 7.60559 220.265 7.05519C221.719 6.50478 223.428 6.22958 225.392 6.22958C226.845 6.22958 228.287 6.3922 229.715 6.71744C231.169 7.01766 232.368 7.44297 233.311 7.99338L231.322 12.1589C229.511 11.1582 227.534 10.6578 225.392 10.6578C224.116 10.6578 223.16 10.833 222.522 11.1832C221.885 11.5335 221.566 11.9838 221.566 12.5342C221.566 13.1597 221.91 13.5975 222.599 13.8477C223.287 14.0979 224.384 14.3355 225.889 14.5607C227.572 14.8359 228.95 15.1361 230.021 15.4614C231.092 15.7616 232.023 16.3245 232.814 17.1501C233.605 17.9757 234 19.1266 234 20.6026C234 21.8536 233.617 22.9669 232.852 23.9426C232.087 24.9183 230.965 25.6814 229.485 26.2318C228.032 26.7572 226.297 27.0199 224.282 27.0199Z" fill="#37D2A9"/>
</svg>
