<svg width="360" height="53" viewBox="0 0 360 53" fill="none" xmlns="http://www.w3.org/2000/svg">
<path d="M21.543 42.0022C17.462 42.0022 13.7734 41.1052 10.4772 39.3113C7.22025 37.5173 4.65 35.0408 2.76645 31.8819C0.922151 28.684 0 25.1155 0 21.1766C0 17.2377 0.922151 13.6887 2.76645 10.5298C4.65 7.33186 7.23987 4.83591 10.5361 3.04194C13.8323 1.24798 17.5209 0.350992 21.6019 0.350992C24.6626 0.350992 27.488 0.857983 30.0778 1.87196C32.6677 2.88594 34.8652 4.36792 36.6702 6.31788L33.9038 9.06733C30.6861 5.83039 26.6247 4.21192 21.7196 4.21192C18.4626 4.21192 15.5 4.9529 12.8316 6.43487C10.1633 7.91685 8.06392 9.94481 6.53354 12.5188C5.0424 15.0927 4.29683 17.9787 4.29683 21.1766C4.29683 24.3745 5.0424 27.2605 6.53354 29.8344C8.06392 32.4084 10.1633 34.4364 12.8316 35.9183C15.5 37.4003 18.4626 38.1413 21.7196 38.1413C26.6639 38.1413 30.7253 36.5033 33.9038 33.2274L36.6702 35.9768C34.8652 37.9268 32.6481 39.4283 30.019 40.4812C27.4291 41.4952 24.6038 42.0022 21.543 42.0022Z" fill="white"/>
<path d="M56.3481 41.9437C53.3658 41.9437 50.6779 41.2807 48.2842 39.9548C45.8905 38.5898 44.007 36.7178 42.6336 34.3389C41.2601 31.9599 40.5734 29.2689 40.5734 26.266C40.5734 23.2631 41.2601 20.5721 42.6336 18.1932C44.007 15.8142 45.8905 13.9617 48.2842 12.6358C50.6779 11.3098 53.3658 10.6468 56.3481 10.6468C59.3304 10.6468 62.0184 11.3098 64.412 12.6358C66.8057 13.9617 68.6696 15.8142 70.0038 18.1932C71.3772 20.5721 72.0639 23.2631 72.0639 26.266C72.0639 29.2689 71.3772 31.9599 70.0038 34.3389C68.6696 36.7178 66.8057 38.5898 64.412 39.9548C62.0184 41.2807 59.3304 41.9437 56.3481 41.9437ZM56.3481 38.2583C58.5456 38.2583 60.5076 37.7708 62.2342 36.7958C64 35.7818 65.3734 34.3584 66.3544 32.5254C67.3354 30.6924 67.826 28.606 67.826 26.266C67.826 23.926 67.3354 21.8396 66.3544 20.0066C65.3734 18.1737 64 16.7697 62.2342 15.7947C60.5076 14.7807 58.5456 14.2737 56.3481 14.2737C54.1506 14.2737 52.169 14.7807 50.4032 15.7947C48.6766 16.7697 47.3032 18.1737 46.2829 20.0066C45.3019 21.8396 44.8114 23.926 44.8114 26.266C44.8114 28.606 45.3019 30.6924 46.2829 32.5254C47.3032 34.3584 48.6766 35.7818 50.4032 36.7958C52.169 37.7708 54.1506 38.2583 56.3481 38.2583Z" fill="white"/>
<path d="M96.5472 10.6468C99.451 10.6468 102.08 11.3098 104.435 12.6358C106.789 13.9227 108.633 15.7557 109.967 18.1347C111.302 20.5136 111.969 23.2241 111.969 26.266C111.969 29.3469 111.302 32.0769 109.967 34.4559C108.633 36.8348 106.789 38.6873 104.435 40.0132C102.119 41.3002 99.4903 41.9437 96.5472 41.9437C94.0358 41.9437 91.7599 41.4367 89.7194 40.4227C87.7181 39.3698 86.07 37.8488 84.7751 35.8598V53H80.596V10.8808H84.5985V16.9647C85.8542 14.9367 87.5023 13.3767 89.5428 12.2848C91.6225 11.1928 93.9574 10.6468 96.5472 10.6468ZM96.2529 38.2583C98.4111 38.2583 100.373 37.7708 102.139 36.7958C103.905 35.7818 105.278 34.3584 106.259 32.5254C107.279 30.6924 107.79 28.606 107.79 26.266C107.79 23.926 107.279 21.8591 106.259 20.0651C105.278 18.2322 103.905 16.8087 102.139 15.7947C100.373 14.7807 98.4111 14.2737 96.2529 14.2737C94.0555 14.2737 92.0738 14.7807 90.308 15.7947C88.5814 16.8087 87.208 18.2322 86.1877 20.0651C85.2067 21.8591 84.7162 23.926 84.7162 26.266C84.7162 28.606 85.2067 30.6924 86.1877 32.5254C87.208 34.3584 88.5814 35.7818 90.308 36.7958C92.0738 37.7708 94.0555 38.2583 96.2529 38.2583Z" fill="white"/>
<path d="M131.146 10.6468C135.188 10.6468 138.288 11.6608 140.446 13.6887C142.604 15.6777 143.683 18.6416 143.683 22.5806V41.6512H139.681V36.8543C138.739 38.4533 137.346 39.7013 135.502 40.5982C133.696 41.4952 131.538 41.9437 129.027 41.9437C125.574 41.9437 122.827 41.1247 120.786 39.4868C118.746 37.8488 117.726 35.6843 117.726 32.9934C117.726 30.3804 118.667 28.2745 120.551 26.6755C122.474 25.0765 125.515 24.277 129.674 24.277H139.504V22.4051C139.504 19.7531 138.758 17.7447 137.267 16.3797C135.776 14.9757 133.598 14.2737 130.734 14.2737C128.772 14.2737 126.888 14.6052 125.083 15.2682C123.278 15.8922 121.728 16.7697 120.433 17.9007L118.55 14.8002C120.119 13.4742 122.003 12.4603 124.2 11.7583C126.398 11.0173 128.713 10.6468 131.146 10.6468ZM129.674 38.6678C132.029 38.6678 134.05 38.1413 135.737 37.0883C137.424 35.9963 138.68 34.4364 139.504 32.4084V27.3775H129.792C124.495 27.3775 121.846 29.2104 121.846 32.8764C121.846 34.6703 122.533 36.0938 123.906 37.1468C125.279 38.1608 127.202 38.6678 129.674 38.6678Z" fill="white"/>
<path d="M181.933 20.5331H190.645V37.1468C188.408 38.8238 185.818 40.1107 182.875 41.0077C179.932 41.9047 176.97 42.3532 173.987 42.3532C169.71 42.3532 165.864 41.4562 162.451 39.6623C159.037 37.8293 156.349 35.3138 154.387 32.1159C152.464 28.879 151.502 25.2325 151.502 21.1766C151.502 17.1207 152.464 13.4937 154.387 10.2958C156.349 7.05887 159.056 4.54341 162.509 2.74945C165.963 0.916483 169.847 0 174.164 0C177.774 0 181.051 0.604488 183.994 1.81346C186.937 3.02244 189.409 4.77741 191.41 7.07837L185.288 12.6943C182.345 9.61332 178.794 8.07285 174.635 8.07285C172.006 8.07285 169.671 8.61884 167.63 9.71082C165.59 10.8028 164.001 12.3433 162.863 14.3322C161.725 16.3212 161.156 18.6026 161.156 21.1766C161.156 23.7116 161.725 25.9735 162.863 27.9625C164.001 29.9514 165.57 31.5114 167.571 32.6424C169.612 33.7344 171.927 34.2804 174.517 34.2804C177.264 34.2804 179.736 33.6954 181.933 32.5254V20.5331Z" fill="white"/>
<path d="M211.628 9.71082C216.533 9.71082 220.3 10.8808 222.929 13.2207C225.558 15.5217 226.873 19.0121 226.873 23.6921V41.6512H218.279V37.7318C216.552 40.6567 213.335 42.1192 208.626 42.1192C206.193 42.1192 204.074 41.7097 202.269 40.8907C200.503 40.0717 199.149 38.9408 198.208 37.4978C197.266 36.0548 196.795 34.4169 196.795 32.5839C196.795 29.6589 197.894 27.358 200.091 25.681C202.328 24.004 205.761 23.1656 210.392 23.1656H217.69C217.69 21.1766 217.082 19.6556 215.866 18.6026C214.649 17.5107 212.825 16.9647 210.392 16.9647C208.704 16.9647 207.037 17.2377 205.389 17.7837C203.78 18.2907 202.406 18.9926 201.268 19.8896L197.972 13.5132C199.699 12.3043 201.759 11.3683 204.152 10.7053C206.585 10.0423 209.077 9.71082 211.628 9.71082ZM210.921 35.9768C212.491 35.9768 213.884 35.6258 215.101 34.9238C216.317 34.1829 217.18 33.1104 217.69 31.7064V28.489H211.392C207.625 28.489 205.742 29.7174 205.742 32.1744C205.742 33.3444 206.193 34.2804 207.095 34.9823C208.037 35.6453 209.313 35.9768 210.921 35.9768Z" fill="white"/>
<path d="M275.738 9.71082C279.701 9.71082 282.841 10.8808 285.156 13.2207C287.51 15.5217 288.687 18.9926 288.687 23.6336V41.6512H279.505V25.0375C279.505 22.5416 278.975 20.6891 277.916 19.4801C276.896 18.2322 275.424 17.6082 273.501 17.6082C271.343 17.6082 269.636 18.3102 268.381 19.7141C267.125 21.0791 266.497 23.1266 266.497 25.8565V41.6512H257.315V25.0375C257.315 20.0846 255.313 17.6082 251.311 17.6082C249.192 17.6082 247.505 18.3102 246.249 19.7141C244.993 21.0791 244.365 23.1266 244.365 25.8565V41.6512H235.183V10.1788H243.953V13.8057C245.131 12.4798 246.563 11.4658 248.25 10.7638C249.977 10.0618 251.86 9.71082 253.901 9.71082C256.137 9.71082 258.158 10.1593 259.963 11.0563C261.768 11.9143 263.22 13.1818 264.319 14.8587C265.614 13.2208 267.243 11.9533 269.205 11.0563C271.206 10.1593 273.384 9.71082 275.738 9.71082Z" fill="white"/>
<path d="M328.282 26.032C328.282 26.149 328.223 26.968 328.106 28.489H304.149C304.581 30.4389 305.601 31.9794 307.21 33.1104C308.819 34.2414 310.82 34.8068 313.214 34.8068C314.862 34.8068 316.314 34.5728 317.57 34.1049C318.865 33.5979 320.061 32.8179 321.16 31.7649L326.046 37.0298C323.063 40.4227 318.708 42.1192 312.979 42.1192C309.408 42.1192 306.249 41.4367 303.502 40.0717C300.755 38.6678 298.636 36.7373 297.145 34.2804C295.654 31.8234 294.908 29.035 294.908 25.915C294.908 22.8341 295.634 20.0651 297.086 17.6082C298.577 15.1122 300.598 13.1817 303.149 11.8168C305.739 10.4128 308.623 9.71082 311.801 9.71082C314.901 9.71082 317.707 10.3738 320.218 11.6998C322.73 13.0258 324.692 14.9367 326.105 17.4327C327.556 19.8896 328.282 22.7561 328.282 26.032ZM311.86 16.6137C309.78 16.6137 308.034 17.1987 306.622 18.3687C305.209 19.5386 304.346 21.1376 304.032 23.1656H319.63C319.316 21.1766 318.453 19.5971 317.04 18.4272C315.627 17.2182 313.901 16.6137 311.86 16.6137Z" fill="white"/>
<path d="M345.049 42.1192C342.42 42.1192 339.85 41.8072 337.339 41.1832C334.827 40.5202 332.826 39.7012 331.335 38.7263L334.396 32.1744C335.808 33.0714 337.515 33.8124 339.516 34.3974C341.518 34.9433 343.48 35.2163 345.403 35.2163C349.287 35.2163 351.23 34.2609 351.23 32.3499C351.23 31.4529 350.7 30.8094 349.641 30.4194C348.581 30.0294 346.953 29.6979 344.755 29.4249C342.165 29.035 340.027 28.5865 338.339 28.0795C336.652 27.5725 335.18 26.6755 333.925 25.3885C332.708 24.1015 332.1 22.2686 332.1 19.8896C332.1 17.9007 332.669 16.1457 333.807 14.6247C334.984 13.0648 336.672 11.8558 338.869 10.9978C341.106 10.1398 343.735 9.71082 346.756 9.71082C348.993 9.71082 351.21 9.96431 353.408 10.4713C355.644 10.9393 357.489 11.6023 358.941 12.4603L355.88 18.9536C353.094 17.3937 350.053 16.6137 346.756 16.6137C344.794 16.6137 343.323 16.8867 342.342 17.4327C341.361 17.9787 340.87 18.6806 340.87 19.5386C340.87 20.5136 341.4 21.1961 342.46 21.5861C343.519 21.9761 345.206 22.3466 347.522 22.6976C350.111 23.1266 352.23 23.5946 353.878 24.1015C355.527 24.5695 356.959 25.447 358.175 26.734C359.392 28.021 360 29.8149 360 32.1159C360 34.0659 359.411 35.8013 358.234 37.3223C357.057 38.8433 355.33 40.0327 353.054 40.8907C350.818 41.7097 348.149 42.1192 345.049 42.1192Z" fill="white"/>
</svg>
